Coordinates
nRows=115
nColumns=2
inDegrees=yes
endheader
time	ankle_angle_r	
2.6875	 -5.294800	
2.75	 -5.270822	
2.8125	 -5.264282	
2.875	 -5.279541	
2.9375	 -5.245572	
3	 -5.256289	
3.0625	 -5.287170	
3.125	 -5.191258	
3.1875	 -5.305881	
3.25	 -5.225045	
3.3125	 -5.111694	
3.375	 -5.223229	
3.4375	 -5.177634	
3.5	 -5.223592	
3.5625	 -5.274273	
3.625	 -5.157471	
3.6875	 -5.167098	
3.75	 -5.187988	
3.8125	 -5.044665	
3.875	 -5.242847	
3.9375	 -5.190531	
4	 -5.190168	
4.0625	 -5.203247	
4.125	 -5.196344	
4.1875	 -5.204337	
4.25	 -5.218506	
4.3125	 -5.150023	
4.375	 -5.126953	
4.4375	 -5.111331	
4.5	 -5.217779	
4.5625	 -5.179814	
4.625	 -5.117144	
4.6875	 -5.220323	
4.75	 -5.218506	
4.8125	 -5.102793	
4.875	 -5.169823	
4.9375	 -5.151476	
5	 -5.264282	
5.0625	 -5.304427	
5.125	 -5.299160	
5.1875	 -5.259559	
5.25	 -5.299886	
5.3125	 -5.253928	
5.375	 -5.249023	
5.4375	 -5.255199	
5.5	 -5.259923	
5.5625	 -5.279541	
5.625	 -5.294800	
5.6875	 -5.268097	
5.75	 -5.306426	
5.8125	 -5.252475	
5.875	 -5.245754	
5.9375	 -5.279541	
6	 -5.236671	
6.0625	 -5.249023	
6.125	 -5.307516	
6.1875	 -5.274818	
6.25	 -5.249023	
6.3125	 -5.235763	
6.375	 -5.144029	
6.4375	 -5.220141	
6.5	 -5.160377	
6.5625	 -5.124410	
6.625	 -5.218506	
6.6875	 -5.188897	
6.75	 -5.263556	
6.8125	 -5.249568	
6.875	 -5.233038	
6.9375	 -5.172548	
7	 -5.050659	
7.0625	 -5.142030	
7.125	 -5.248660	
7.1875	 -5.158016	
7.25	 -5.203247	
7.3125	 -5.219414	
7.375	 -5.110604	
7.4375	 -5.143484	
7.5	 -5.217052	
7.5625	 -5.159106	
7.625	 -5.174546	
7.6875	 -5.174727	
7.75	 -5.231585	
7.8125	 -5.244300	
7.875	 -5.167643	
7.9375	 -5.117144	
8	 -5.258470	
8.0625	 -5.206335	
8.125	 -5.261013	
8.1875	 -5.279541	
8.25	 -5.267915	
8.3125	 -5.287170	
8.375	 -5.306062	
8.4375	 -5.240667	
8.5	 -5.268642	
8.5625	 -5.238306	
8.625	 -5.238488	
8.6875	 -5.305154	
8.75	 -5.284627	
8.8125	 -5.304790	
8.875	 -5.300250	
8.9375	 -5.243392	
9	 -5.249023	
9.0625	 -5.224500	
9.125	 -5.224682	
9.1875	 -5.240122	
9.25	 -5.273002	
9.3125	 -5.218506	
9.375	 -5.217052	
9.4375	 -5.172729	
9.5	 -5.158197	
9.5625	 -5.142212	
9.625	 -5.096436	
9.6875	 -5.172729	
9.75	 -5.118960	
9.8125	 -5.142212	
